<svg width="112" height="96" viewBox="0 0 112 96" fill="none" xmlns="http://www.w3.org/2000/svg">
<path d="M52.429 52.1309C58.4892 65.4173 77.8343 87.2104 106.735 68.0909M106.735 68.0909L92.0671 62.2072M106.735 68.0909L102.256 81.5169" stroke="#F68067" stroke-width="2" stroke-linecap="round"/>
<path d="M20.8006 35.5728L16.5255 25.9825L18.334 25.1763L20.099 29.1357L23.6611 27.5479L21.8961 23.5884L23.7045 22.7823L27.9796 32.3726L26.1711 33.1787L24.3939 29.1919L20.8318 30.7798L22.609 34.7666L20.8006 35.5728ZM33.1651 30.2909C32.4892 30.5922 31.8207 30.726 31.1597 30.6922C30.4987 30.6584 29.8969 30.4504 29.3542 30.0682C28.8116 29.686 28.3774 29.1296 28.0517 28.3989L27.954 28.1797C27.6283 27.449 27.5047 26.7542 27.5831 26.0951C27.6616 25.4361 27.9092 24.8494 28.3259 24.3352C28.7427 23.821 29.289 23.4132 29.9649 23.1119C30.6408 22.8106 31.3092 22.6769 31.9702 22.7107C32.6313 22.7445 33.2331 22.9524 33.7757 23.3346C34.3183 23.7168 34.7525 24.2732 35.0782 25.0039L35.1759 25.2231C35.5017 25.9538 35.6253 26.6487 35.5468 27.3077C35.4684 27.9668 35.2208 28.5534 34.804 29.0677C34.3873 29.5819 33.841 29.9896 33.1651 30.2909ZM32.4811 28.7565C33.0108 28.5203 33.3739 28.1559 33.5703 27.6633C33.7627 27.1615 33.7164 26.5909 33.4314 25.9516L33.3703 25.8146C33.0853 25.1752 32.6939 24.7639 32.1962 24.5807C31.7035 24.3843 31.1878 24.4061 30.6489 24.6464C30.1191 24.8825 29.7581 25.2515 29.5657 25.7533C29.3693 26.2459 29.4136 26.8119 29.6986 27.4513L29.7597 27.5883C30.0447 28.2277 30.4381 28.6435 30.9399 28.8359C31.4376 29.0191 31.9513 28.9926 32.4811 28.7565ZM39.4593 27.2552L34.2654 21.4248L36.1012 20.6064L40.1441 25.439L40.3907 25.3291L39.4989 19.0918L41.3348 18.2734L42.1993 26.0338L39.4593 27.2552ZM48.5213 23.4456C47.8454 23.7468 47.1841 23.872 46.5372 23.8209C45.8955 23.7566 45.3124 23.5293 44.7881 23.139C44.2688 22.7355 43.8503 22.1775 43.5328 21.4651L43.4595 21.3007C43.1419 20.5882 43.0086 19.9086 43.0597 19.2618C43.1067 18.6058 43.3228 18.0223 43.7081 17.5111C44.0893 16.9908 44.6178 16.58 45.2937 16.2788C45.9605 15.9815 46.6076 15.8737 47.2352 15.9552C47.8587 16.0277 48.4255 16.2677 48.9357 16.6753C49.4418 17.0737 49.8495 17.6201 50.159 18.3142L50.4216 18.9033L45.4757 21.108C45.7016 21.5657 46.0442 21.8674 46.5032 22.0131C46.9623 22.1588 47.4294 22.1258 47.9043 21.9141C48.3884 21.6983 48.6978 21.4345 48.8325 21.1226C48.9672 20.8107 49.0369 20.5005 49.0416 20.1918L50.7826 20.3026C50.7606 20.5971 50.6894 20.9408 50.569 21.3339C50.4536 21.7138 50.2398 22.0937 49.9275 22.4738C49.6111 22.8448 49.1424 23.1687 48.5213 23.4456ZM44.9153 19.8141L48.0938 18.3972C47.8822 18.0208 47.5819 17.7769 47.1929 17.6656C46.8131 17.5503 46.3994 17.5924 45.9518 17.7919C45.486 17.9996 45.169 18.2832 45.0009 18.6428C44.8327 19.0024 44.8042 19.3929 44.9153 19.8141ZM53.2467 21.1092L50.2175 14.3138L51.9163 13.5565L52.2583 14.3237L52.505 14.2138C52.4833 13.895 52.5581 13.6208 52.7294 13.3911C52.9099 13.1574 53.1554 12.9713 53.466 12.8329L54.288 12.4664L54.972 14.0009L54.1226 14.3795C53.6842 14.5749 53.3763 14.8545 53.199 15.2182C53.0177 15.5728 53.0349 15.9921 53.2507 16.4762L54.9729 20.3397L53.2467 21.1092ZM22.4184 54.789C21.7425 55.0903 21.074 55.224 20.413 55.1902C19.7519 55.1564 19.1501 54.9484 18.6075 54.5663C18.0649 54.1841 17.6307 53.6276 17.305 52.897L17.2073 52.6777C16.8816 51.9471 16.7579 51.2522 16.8364 50.5931C16.9149 49.9341 17.1625 49.3475 17.5792 48.8332C17.9959 48.319 18.5423 47.9112 19.2181 47.61C19.894 47.3087 20.5625 47.1749 21.2235 47.2087C21.8845 47.2425 22.4864 47.4505 23.029 47.8327C23.5716 48.2148 24.0058 48.7713 24.3315 49.502L24.4292 49.7212C24.7549 50.4519 24.8786 51.1467 24.8001 51.8058C24.7216 52.4648 24.474 53.0515 24.0573 53.5657C23.6406 54.0799 23.0942 54.4877 22.4184 54.789ZM21.7343 53.2545C22.2641 53.0184 22.6272 52.654 22.8236 52.1613C23.016 51.6595 22.9696 51.0889 22.6846 50.4496L22.6236 50.3126C22.3386 49.6732 21.9472 49.2619 21.4495 49.0787C20.9568 48.8823 20.441 48.9042 19.9022 49.1444C19.3724 49.3805 19.0114 49.7495 18.819 50.2513C18.6226 50.744 18.6669 51.31 18.9519 51.9493L19.0129 52.0863C19.2979 52.7257 19.6913 53.1415 20.1931 53.3339C20.6909 53.5171 21.2046 53.4907 21.7343 53.2545ZM28.7125 51.7533L23.5187 45.9228L25.3545 45.1044L29.3974 49.9371L29.644 49.8271L28.7522 43.5898L30.5881 42.7715L31.4526 50.5318L28.7125 51.7533ZM37.7746 47.9436C37.0987 48.2449 36.4373 48.37 35.7905 48.3189C35.1487 48.2547 34.5657 48.0274 34.0413 47.637C33.522 47.2335 33.1036 46.6755 32.786 45.9631L32.7127 45.7987C32.3952 45.0863 32.2619 44.4066 32.313 43.7598C32.36 43.1038 32.5761 42.5203 32.9614 42.0091C33.3426 41.4889 33.8711 41.0781 34.547 40.7768C35.2137 40.4796 35.8609 40.3717 36.4885 40.4533C37.112 40.5257 37.6788 40.7657 38.189 41.1733C38.695 41.5718 39.1028 42.1181 39.4122 42.8122L39.6749 43.4014L34.729 45.6061C34.9549 46.0637 35.2974 46.3654 35.7565 46.5111C36.2156 46.6568 36.6826 46.6238 37.1576 46.4121C37.6417 46.1963 37.9511 45.9325 38.0858 45.6206C38.2204 45.3088 38.2902 44.9985 38.2949 44.6898L40.0358 44.8006C40.0138 45.0951 39.9426 45.4389 39.8222 45.8319C39.7069 46.2118 39.4931 46.5918 39.1808 46.9719C38.8644 47.3428 38.3957 47.6667 37.7746 47.9436ZM34.1686 44.3121L37.3471 42.8952C37.1355 42.5188 36.8352 42.2749 36.4462 42.1637C36.0663 42.0483 35.6526 42.0904 35.2051 42.2899C34.7393 42.4976 34.4223 42.7812 34.2541 43.1408C34.086 43.5005 34.0575 43.8909 34.1686 44.3121ZM42.5 45.6072L39.4708 38.8118L41.1696 38.0545L41.5116 38.8217L41.7582 38.7118C41.7365 38.393 41.8114 38.1188 41.9827 37.8891C42.1632 37.6554 42.4087 37.4693 42.7192 37.3309L43.5413 36.9644L44.2253 38.4989L43.3759 38.8775C42.9374 39.073 42.6296 39.3525 42.4523 39.7162C42.271 40.0708 42.2882 40.4901 42.504 40.9742L44.2262 44.8377L42.5 45.6072ZM51.4106 41.6351L48.3814 34.8397L50.0802 34.0824L50.41 34.8222L50.6566 34.7123C50.6736 34.431 50.7824 34.1471 50.9831 33.8606C51.1798 33.5649 51.5019 33.3173 51.9494 33.1178C52.4335 32.902 52.8644 32.8249 53.2422 32.8864C53.6159 32.9388 53.9476 33.0811 54.2372 33.3132L54.4838 33.2033C54.5088 32.8418 54.6201 32.5021 54.8178 32.184C55.0154 31.866 55.3745 31.591 55.8951 31.3589C56.3153 31.1716 56.7351 31.094 57.1544 31.126C57.5789 31.1448 57.973 31.2921 58.3368 31.5679C58.7056 31.8305 59.0122 32.2357 59.2565 32.7838L61.2475 37.2501L59.5212 38.0196L57.5852 33.6766C57.4183 33.3021 57.1982 33.0663 56.925 32.9691C56.6477 32.8628 56.3355 32.887 55.9884 33.0417C55.5957 33.2168 55.3467 33.4811 55.2415 33.8345C55.1413 34.1748 55.1951 34.5778 55.4027 35.0436L57.1922 39.0578L55.4659 39.8274L53.5299 35.4843C53.363 35.1099 53.1429 34.874 52.8697 34.7769C52.5923 34.6706 52.2802 34.6948 51.9331 34.8495C51.5403 35.0246 51.2914 35.2888 51.1861 35.6423C51.086 35.9825 51.1398 36.3856 51.3474 36.8514L53.1368 40.8656L51.4106 41.6351ZM66.2859 35.234C65.61 35.5353 64.9486 35.6604 64.3018 35.6094C63.66 35.5451 63.077 35.3178 62.5526 34.9275C62.0333 34.5239 61.6149 33.966 61.2973 33.2535L61.224 33.0891C60.9065 32.3767 60.7732 31.6971 60.8243 31.0503C60.8713 30.3943 61.0874 29.8107 61.4727 29.2996C61.8539 28.7793 62.3824 28.3685 63.0583 28.0672C63.725 27.77 64.3722 27.6622 64.9998 27.7437C65.6233 27.8161 66.1901 28.0561 66.7003 28.4637C67.2064 28.8622 67.6141 29.4085 67.9235 30.1027L68.1862 30.6918L63.2403 32.8965C63.4662 33.3542 63.8087 33.6559 64.2678 33.8016C64.7269 33.9473 65.1939 33.9143 65.6689 33.7026C66.153 33.4868 66.4624 33.2229 66.5971 32.9111C66.7318 32.5992 66.8015 32.289 66.8062 31.9803L68.5471 32.0911C68.5251 32.3855 68.4539 32.7293 68.3335 33.1224C68.2182 33.5022 68.0044 33.8822 67.6921 34.2623C67.3757 34.6333 66.907 34.9572 66.2859 35.234ZM62.6799 31.6026L65.8584 30.1857C65.6468 29.8092 65.3465 29.5654 64.9575 29.4541C64.5776 29.3388 64.1639 29.3809 63.7164 29.5804C63.2506 29.788 62.9336 30.0717 62.7654 30.4313C62.5973 30.7909 62.5688 31.1813 62.6799 31.6026ZM69.8121 29.655L66.9417 23.2158L68.6953 22.434L71.5658 28.8732L69.8121 29.655ZM72.1791 32.607C71.8138 32.7699 71.4503 32.7896 71.0887 32.6661C70.7322 32.5294 70.4684 32.2693 70.2974 31.8857C70.1264 31.502 70.1112 31.1365 70.252 30.7891C70.3978 30.4285 70.6534 30.1668 71.0187 30.0039C71.3932 29.837 71.7587 29.8219 72.1152 29.9585C72.4677 30.0861 72.7295 30.3417 72.9005 30.7253C73.0715 31.1089 73.0886 31.479 72.9519 31.8355C72.8112 32.1829 72.5536 32.4401 72.1791 32.607Z" fill="#F68067"/>
</svg>
