<svg width="24" height="24" viewBox="0 0 24 24" fill="none" xmlns="http://www.w3.org/2000/svg">
<path d="M11.414 10L4.03097 17.418C3.83532 17.6123 3.68004 17.8435 3.57408 18.0981C3.46812 18.3527 3.41357 18.6257 3.41357 18.9015C3.41357 19.1773 3.46812 19.4503 3.57408 19.7049C3.68004 19.9595 3.83532 20.1907 4.03097 20.385C4.42634 20.7783 4.96132 20.999 5.51897 20.999C6.07662 20.999 6.6116 20.7783 7.00697 20.385L14.414 13M18.1209 15.2931L20.7069 12.7071C20.8944 12.5196 20.9997 12.2653 20.9997 12.0001C20.9997 11.7349 20.8944 11.4806 20.7069 11.2931L13.1209 3.70709C12.9334 3.51962 12.6791 3.41431 12.4139 3.41431C12.1487 3.41431 11.8944 3.51962 11.7069 3.70709L9.12091 6.29309C8.93344 6.48062 8.82812 6.73493 8.82812 7.00009C8.82812 7.26526 8.93344 7.51957 9.12091 7.70709L16.7069 15.2931C16.8944 15.4806 17.1487 15.5859 17.4139 15.5859C17.6791 15.5859 17.9334 15.4806 18.1209 15.2931Z" stroke="white" stroke-width="2" stroke-linecap="round" stroke-linejoin="round"/>
</svg>
