<svg width="112" height="96" viewBox="0 0 112 96" fill="none" xmlns="http://www.w3.org/2000/svg">
<path d="M52.429 52.1309C58.4892 65.4173 77.8343 87.2104 106.735 68.0909M106.735 68.0909L92.0671 62.2072M106.735 68.0909L102.256 81.5169" stroke="#F68067" stroke-width="2" stroke-linecap="round"/>
<path d="M31.4356 30.832L27.8934 22.8858L25.0985 24.1317L24.3657 22.4876L31.7639 19.1897L32.4968 20.8338L29.7019 22.0797L33.2441 30.0259L31.4356 30.832ZM36.3888 28.6241L33.3596 21.8287L35.0584 21.0714L35.4004 21.8386L35.647 21.7287C35.6253 21.4099 35.7002 21.1356 35.8715 20.906C36.052 20.6723 36.2975 20.4862 36.608 20.3477L37.4301 19.9813L38.1141 21.5158L37.2647 21.8944C36.8262 22.0898 36.5184 22.3694 36.3411 22.7331C36.1598 23.0876 36.177 23.507 36.3928 23.9911L38.115 27.8546L36.3888 28.6241ZM43.782 28.6129L43.1102 27.1059L46.8093 25.4569C47.0651 25.3429 47.1319 25.1489 47.0097 24.8749L46.2463 23.1624L45.9997 23.2723C45.9959 23.4601 45.9509 23.6663 45.8649 23.8908C45.7788 24.1153 45.6257 24.3368 45.4056 24.5553C45.1856 24.7739 44.87 24.9748 44.459 25.158C43.9292 25.3941 43.4105 25.483 42.9028 25.4247C42.4001 25.3532 41.9435 25.1516 41.5329 24.8201C41.1223 24.4885 40.7929 24.0441 40.5445 23.487L38.7368 19.4317L40.463 18.6622L42.2097 22.5805C42.4377 23.092 42.732 23.4206 43.0926 23.5664C43.4624 23.7082 43.8801 23.6752 44.3459 23.4675C44.8757 23.2314 45.2093 22.8746 45.3469 22.3973C45.4804 21.9108 45.4067 21.3524 45.1257 20.7222L43.5867 17.2697L45.313 16.5002L48.8796 24.5012C49.0872 24.967 49.1151 25.398 48.9633 25.7942C48.8155 26.1995 48.5132 26.5039 48.0566 26.7075L43.782 28.6129ZM18.6483 56.4696C17.8628 56.8198 17.1238 56.9795 16.4313 56.9488C15.7439 56.9049 15.1314 56.6852 14.5939 56.2898C14.0614 55.8812 13.6322 55.3116 13.3065 54.5809L10.5338 48.3609L12.3423 47.5548L15.1394 53.8296C15.4 54.4141 15.77 54.8021 16.2495 54.9934C16.738 55.1807 17.2975 55.1339 17.9277 54.853C18.5579 54.572 18.9621 54.1893 19.1402 53.7048C19.3275 53.2162 19.2909 52.6796 19.0303 52.0951L16.2332 45.8203L18.0417 45.0141L20.8144 51.2341C21.1401 51.9648 21.2723 52.6668 21.2111 53.34C21.155 54.0001 20.909 54.6024 20.473 55.1472C20.042 55.6787 19.4338 56.1195 18.6483 56.4696ZM25.3449 56.5391L21.0943 47.0036L22.7931 46.2463L23.1596 47.0684L23.4062 46.9584C23.4434 46.6243 23.5816 46.2835 23.8208 45.936C24.056 45.5794 24.4795 45.2647 25.0915 44.9919C25.6395 44.7476 26.2075 44.6586 26.7955 44.725C27.3794 44.7822 27.9289 45.008 28.4441 45.4024C28.9593 45.7968 29.3818 46.3639 29.7116 47.1037L29.8094 47.3229C30.1391 48.0628 30.2785 48.7561 30.2274 49.4029C30.1764 50.0498 29.979 50.614 29.6353 51.0957C29.2876 51.5682 28.8397 51.9266 28.2917 52.1709C27.8807 52.3541 27.5112 52.4586 27.1833 52.4843C26.8686 52.5151 26.5919 52.4962 26.3532 52.4274C26.1196 52.3454 25.9179 52.2492 25.7482 52.1387L25.5016 52.2486L27.0712 55.7696L25.3449 56.5391ZM27.0993 50.8959C27.6382 50.6557 28.0058 50.2893 28.2023 49.7966C28.4038 49.2907 28.3579 48.709 28.0648 48.0514L28.0037 47.9144C27.7106 47.2567 27.3106 46.8384 26.8037 46.6592C26.2928 46.4709 25.7724 46.4948 25.2427 46.731C24.7129 46.9671 24.3473 47.3381 24.1458 47.844C23.9403 48.3407 23.984 48.9179 24.2772 49.5755L24.3383 49.7125C24.6314 50.3702 25.0335 50.7931 25.5444 50.9814C26.0512 51.1606 26.5695 51.1321 27.0993 50.8959ZM34.0843 49.3588L28.8905 43.5283L30.7263 42.7099L34.7692 47.5426L35.0158 47.4326L34.124 41.1953L35.9599 40.377L36.8244 48.1373L34.0843 49.3588ZM43.2834 45.488C42.6075 45.7893 41.939 45.923 41.278 45.8893C40.617 45.8555 40.0152 45.6475 39.4725 45.2653C38.9299 44.8831 38.4958 44.3267 38.17 43.596L38.0723 43.3768C37.7466 42.6461 37.623 41.9512 37.7014 41.2922C37.7799 40.6331 38.0275 40.0465 38.4442 39.5323C38.861 39.018 39.4073 38.6103 40.0832 38.309C40.7591 38.0077 41.4275 37.8739 42.0885 37.9077C42.7496 37.9415 43.3514 38.1495 43.894 38.5317C44.4366 38.9139 44.8708 39.4703 45.1965 40.201L45.2942 40.4202C45.62 41.1509 45.7436 41.8458 45.6651 42.5048C45.5867 43.1639 45.3391 43.7505 44.9223 44.2647C44.5056 44.779 43.9593 45.1867 43.2834 45.488ZM42.5994 43.9536C43.1291 43.7174 43.4922 43.353 43.6886 42.8603C43.881 42.3586 43.8347 41.788 43.5497 41.1486L43.4886 41.0116C43.2036 40.3723 42.8122 39.961 42.3145 39.7778C41.8218 39.5813 41.3061 39.6032 40.7672 39.8434C40.2374 40.0796 39.8764 40.4486 39.684 40.9503C39.4876 41.443 39.5319 42.009 39.8169 42.6484L39.878 42.7854C40.163 43.4247 40.5564 43.8406 41.0582 44.0329C41.5559 44.2162 42.0696 44.1897 42.5994 43.9536ZM50.729 41.939C50.2815 42.1385 49.8551 42.1644 49.4498 42.0166C49.0496 41.8556 48.7456 41.5422 48.538 41.0764L46.8279 37.2403L45.1291 37.9976L44.4939 36.5727L46.1928 35.8154L45.2523 33.7055L46.9785 32.936L47.919 35.0459L49.7823 34.2153L50.4175 35.6402L48.5542 36.4707L50.1299 40.0054C50.252 40.2795 50.441 40.3595 50.6967 40.2455L52.0119 39.6592L52.6471 41.084L50.729 41.939ZM54.3741 40.3142L51.3449 33.5187L53.0711 32.7492L56.1004 39.5446L54.3741 40.3142ZM51.8538 32.3394C51.5433 32.4778 51.2336 32.4954 50.9248 32.3922C50.6252 32.2849 50.4021 32.0668 50.2555 31.738C50.1089 31.4092 50.0959 31.0975 50.2164 30.8029C50.346 30.5043 50.5661 30.2857 50.8766 30.1473C51.1963 30.0048 51.506 29.9872 51.8056 30.0945C52.1053 30.2018 52.3284 30.4198 52.475 30.7486C52.6215 31.0775 52.6346 31.3891 52.5141 31.6837C52.3936 31.9783 52.1735 32.1969 51.8538 32.3394ZM58.0133 38.6919L54.9841 31.8965L56.6829 31.1392L57.0799 32.0297L57.3265 31.9198C57.3302 31.6335 57.436 31.3181 57.6438 30.9737C57.8475 30.6201 58.2553 30.3069 58.8672 30.0341C59.397 29.798 59.9132 29.7157 60.4159 29.7872C60.9236 29.8455 61.3828 30.0405 61.7933 30.372C62.1998 30.6945 62.5293 31.1388 62.7817 31.7051L64.5895 35.7604L62.8632 36.5299L61.1165 32.6116C60.8885 32.1001 60.5897 31.7735 60.2199 31.6318C59.8593 31.486 59.4461 31.5169 58.9803 31.7245C58.4505 31.9607 58.1189 32.322 57.9854 32.8085C57.8479 33.2859 57.9196 33.8397 58.2005 34.4699L59.7395 37.9224L58.0133 38.6919ZM64.6244 31.7048L64.5267 31.4856C64.2091 30.7732 64.0799 30.1027 64.1391 29.4741C64.1943 28.8364 64.3957 28.2813 64.7435 27.8088C65.0963 27.3231 65.5512 26.956 66.1084 26.7077C66.7295 26.4308 67.2487 26.3307 67.6661 26.4074C68.0835 26.4841 68.4182 26.6086 68.6702 26.781L68.9168 26.671L68.5504 25.849L70.2492 25.0917L73.8159 33.0928C74.0235 33.5586 74.0514 33.9896 73.8995 34.3857C73.7517 34.791 73.4495 35.0954 72.9928 35.299L68.4443 37.3266L67.7725 35.8196L71.7182 34.0607C71.974 33.9467 72.0408 33.7527 71.9186 33.4787L71.1308 31.7113L70.8842 31.8212C70.858 32.0081 70.7973 32.2158 70.7021 32.4444C70.6028 32.6638 70.4386 32.8848 70.2094 33.1074C69.9801 33.33 69.6555 33.535 69.2353 33.7223C68.6782 33.9706 68.1031 34.0682 67.5101 34.0151C66.9221 33.9487 66.3746 33.7275 65.8675 33.3513C65.3564 32.9661 64.942 32.4172 64.6244 31.7048ZM69.0567 31.9954C69.5865 31.7592 69.9541 31.3928 70.1597 30.8961C70.3653 30.3993 70.3317 29.845 70.0589 29.233L69.9978 29.096C69.7209 28.4749 69.3311 28.0794 68.8283 27.9094C68.3306 27.7261 67.8123 27.7546 67.2734 27.9949C66.7437 28.231 66.376 28.5974 66.1704 29.0942C65.9608 29.5818 65.9944 30.1361 66.2713 30.7572L66.3323 30.8942C66.6051 31.5062 66.995 31.9017 67.5018 32.0809C68.0087 32.26 68.527 32.2315 69.0567 31.9954ZM73.9931 27.7913L71.1227 21.3521L72.8764 20.5703L75.7468 27.0095L73.9931 27.7913ZM76.3601 30.7433C75.9948 30.9062 75.6313 30.9259 75.2697 30.8024C74.9132 30.6657 74.6494 30.4056 74.4784 30.022C74.3074 29.6383 74.2923 29.2728 74.433 28.9254C74.5788 28.5648 74.8344 28.3031 75.1998 28.1402C75.5742 27.9733 75.9397 27.9582 76.2963 28.0948C76.6488 28.2224 76.9105 28.478 77.0815 28.8616C77.2525 29.2452 77.2697 29.6153 77.133 29.9718C76.9922 30.3192 76.7346 30.5764 76.3601 30.7433Z" fill="#F68067"/>
</svg>
